<?xml version="1.0" encoding="UTF-8" standalone="no"?><!DOCTYPE svg PUBLIC "-//W3C//DTD SVG 1.1//EN" "http://www.w3.org/Graphics/SVG/1.1/DTD/svg11.dtd"><svg width="100%" height="100%" viewBox="0 0 2500 662" version="1.1" xmlns="http://www.w3.org/2000/svg" xmlns:xlink="http://www.w3.org/1999/xlink" xml:space="preserve" xmlns:serif="http://www.serif.com/" style="fill-rule:evenodd;clip-rule:evenodd;stroke-linejoin:round;stroke-miterlimit:2;"><path d="M0.341,554.523l274.531,0l0,-90.138l-175.163,-0l0,-343.859l-99.368,0l0,433.997Zm413.525,0l-0,-298.928l-99.359,0l-0,298.928l99.359,0Zm-49.671,-339.734c34.642,-0 56.208,-22.956 56.208,-51.659c-0.642,-29.329 -21.566,-51.633 -55.548,-51.633c-33.991,-0 -56.218,22.313 -56.218,51.633c0,28.703 21.567,51.659 54.907,51.659l0.651,-0Zm95.799,339.734l99.359,0l0,-166.941c0,-8.934 0.643,-17.868 3.273,-24.232c7.172,-17.851 23.52,-36.344 50.973,-36.344c35.962,0 50.349,27.419 50.349,67.582l-0,159.926l99.341,0l0,-171.395c0,-91.823 -49.019,-134.548 -114.396,-134.548c-53.596,0 -77.133,29.962 -90.208,50.374l0.668,0l0,-43.35l-99.359,0c1.311,28.052 0,298.928 0,298.928Zm443.469,-433.997l-99.359,0l0,433.997l99.359,0l0,-96.919l24.831,-31.265l77.793,128.184l122.228,0l-130.719,-185.564l114.379,-126.24l-119.606,0c-0,0 -81.708,112.938 -88.906,126.344l0,-248.537Z" style="fill:#fff;fill-rule:nonzero;"/><path d="M1394.02,429.829c1.311,-7.675 3.273,-22.4 3.273,-39.052c0,-77.272 -39.226,-155.724 -142.501,-155.724c-110.472,0 -161.463,87.369 -161.463,166.611c0,98.005 62.104,159.206 170.606,159.206c43.15,-0 83.01,-6.356 115.707,-19.752l-13.075,-65.62c-26.811,8.89 -54.264,13.344 -88.246,13.344c-46.406,0 -86.926,-19.057 -90.199,-59.655l205.898,0.625l-0,0.017Zm-206.55,-67.217c2.614,-25.508 19.622,-63.146 62.104,-63.146c45.096,0 55.566,40.181 55.566,63.146l-117.67,-0Zm455.069,-242.086l0,150.237l-1.311,-0c-14.386,-21.028 -44.453,-35.059 -84.304,-35.059c-76.49,0 -143.812,61.21 -143.169,165.778c-0,96.928 60.801,160.056 136.614,160.056c41.188,0 80.397,-17.868 100.019,-52.301l1.953,-0l3.933,45.286l88.237,0c-1.302,-21.046 -2.622,-57.389 -2.622,-93.099l0,-340.906l-99.359,-0l0.009,0.008Zm0,295.629c0,7.64 -0.651,15.307 -1.971,21.662c-5.86,27.436 -29.398,46.545 -58.162,46.545c-41.171,0 -67.981,-33.148 -67.981,-85.433c-0,-49.089 22.895,-88.627 68.641,-88.627c30.718,-0 52.284,21.037 58.171,47.17c1.302,5.756 1.302,12.138 1.302,17.868l0,40.815Z" style="fill:#fff;fill-rule:nonzero;"/><path d="M1841.81,47.422c-0,-26.177 21.775,-47.422 48.62,-47.422l560.592,0c26.854,0 48.62,21.245 48.62,47.422l0,567.165c0,26.185 -21.766,47.413 -48.62,47.413l-560.592,-0c-26.845,-0 -48.62,-21.228 -48.62,-47.405l-0,-567.173Zm254.406,506.736l99.35,0l-0,-166.915c-0,-8.925 0.651,-17.868 3.273,-24.24c7.18,-17.86 23.529,-36.344 50.982,-36.344c35.944,-0 50.331,27.41 50.331,67.599l-0,159.9l99.35,0l-0,-171.395c-0,-91.814 -49.011,-134.539 -114.379,-134.539c-52.706,-0 -76.343,28.967 -89.548,49.333l-0,1.024l-0.66,-0c0.217,-0.339 0.437,-0.68 0.66,-1.024l-0,-42.318l-99.351,0c1.29,27.951 0,297.143 -0.008,298.919l-0.001,0l0,0.009l0.001,-0.009Zm-154.353,-298.928l0,298.928l99.359,0l0,-298.928l-99.359,0Zm49.697,-40.806c34.642,0 56.209,-22.956 56.209,-51.642c-0.651,-29.337 -21.567,-51.65 -55.549,-51.65c-34.008,0 -56.217,22.313 -56.217,51.65c-0,28.686 21.558,51.642 54.906,51.642l0.651,0Zm-149.75,-167.002l-0,-0.009l-0,0.009Z" style="fill:#fff;fill-rule:nonzero;"/></svg>