<?xml version="1.0" encoding="UTF-8" standalone="no"?><!DOCTYPE svg PUBLIC "-//W3C//DTD SVG 1.1//EN" "http://www.w3.org/Graphics/SVG/1.1/DTD/svg11.dtd"><svg width="100%" height="100%" viewBox="0 0 3840 2160" version="1.1" xmlns="http://www.w3.org/2000/svg" xmlns:xlink="http://www.w3.org/1999/xlink" xml:space="preserve" xmlns:serif="http://www.serif.com/" style="fill-rule:evenodd;clip-rule:evenodd;stroke-linejoin:round;stroke-miterlimit:2;"><g id="orange"><rect x="0" y="0" width="3840" height="2160" style="fill:#ed6908;"/><path d="M3840,879c-485.133,0 -879,-393.867 -879,-879l879,-0l0,879Z" style="fill:#ec6400;"/><path d="M1920,2160l-1920,-0l0,-2160c0,0 1920,636.744 1920,2160Z" style="fill:#ec6400;"/></g><g id="green"><rect x="0" y="0" width="3840" height="2160" style="fill:#009d27;"/><path d="M3840,879c-485.133,0 -879,-393.867 -879,-879l879,-0l0,879Z" style="fill:#009927;"/><path d="M1920,2160l-1920,-0l0,-2160c0,0 1920,636.744 1920,2160Z" style="fill:#009927;"/></g><g id="blue"><rect x="0" y="0" width="3840" height="2160" style="fill:#0092df;"/><path d="M3840,879c-485.133,0 -879,-393.867 -879,-879l879,-0l0,879Z" style="fill:#008cdc;"/><path d="M1920,2160l-1920,-0l0,-2160c0,0 1920,636.744 1920,2160Z" style="fill:#008cdc;"/></g></svg>