<?xml version="1.0" encoding="UTF-8" standalone="no"?><!DOCTYPE svg PUBLIC "-//W3C//DTD SVG 1.1//EN" "http://www.w3.org/Graphics/SVG/1.1/DTD/svg11.dtd"><svg width="100%" height="100%" viewBox="0 0 64 64" version="1.1" xmlns="http://www.w3.org/2000/svg" xmlns:xlink="http://www.w3.org/1999/xlink" xml:space="preserve" xmlns:serif="http://www.serif.com/" style="fill-rule:evenodd;clip-rule:evenodd;stroke-linejoin:round;stroke-miterlimit:2;"><path d="M32,0c17.661,0 32,14.339 32,32c0,17.661 -14.339,32 -32,32c-17.661,0 -32,-14.339 -32,-32c0,-17.661 14.339,-32 32,-32Zm-5.88,49.4c-0.722,0.35 -1.518,0.518 -2.32,0.49c-1.077,0.049 -2.124,-0.371 -2.87,-1.15c-0.735,-0.822 -1.122,-1.898 -1.08,-3c-0.054,-1.205 0.383,-2.382 1.21,-3.26c0.807,-0.827 1.925,-1.277 3.08,-1.24c0.684,-0.023 1.365,0.096 2,0.35l0,1c-0.611,-0.339 -1.301,-0.511 -2,-0.5c-0.891,-0.025 -1.75,0.34 -2.35,1c-0.623,0.71 -0.946,1.636 -0.9,2.58c-0.047,0.894 0.254,1.773 0.84,2.45c0.568,0.611 1.376,0.944 2.21,0.91c0.768,0.02 1.526,-0.174 2.19,-0.56l-0.01,0.93Zm4.09,0.49c-0.805,0.026 -1.583,-0.299 -2.13,-0.89c-0.547,-0.61 -0.831,-1.412 -0.79,-2.23c-0.05,-0.866 0.249,-1.716 0.83,-2.36c0.594,-0.579 1.401,-0.887 2.23,-0.85c0.784,-0.042 1.548,0.262 2.09,0.83c0.531,0.64 0.8,1.459 0.75,2.29c0.042,0.843 -0.249,1.669 -0.81,2.3c-0.557,0.602 -1.35,0.935 -2.17,0.91Zm13.51,-2.89l-4.23,0c-0.028,0.559 0.154,1.109 0.51,1.54c0.375,0.374 0.892,0.57 1.42,0.54c0.678,-0.007 1.334,-0.243 1.86,-0.67l0,0.9c-0.618,0.407 -1.351,0.607 -2.09,0.57c-0.755,0.038 -1.489,-0.263 -2,-0.82c-0.52,-0.649 -0.781,-1.47 -0.73,-2.3c-0.036,-0.833 0.247,-1.648 0.79,-2.28c0.501,-0.578 1.236,-0.902 2,-0.88c0.691,-0.039 1.362,0.242 1.82,0.76c0.46,0.607 0.688,1.36 0.64,2.12l0.01,0.52Zm-5.86,-2.28c-0.216,-0.141 -0.472,-0.208 -0.73,-0.19c-0.409,0.015 -0.784,0.233 -1,0.58c-0.298,0.471 -0.441,1.024 -0.41,1.58l0,3.06l-1,0l0,-6l1,0l0,1.25c0.11,-0.387 0.329,-0.734 0.63,-1c0.261,-0.226 0.595,-0.351 0.94,-0.35c0.193,-0.009 0.387,0.018 0.57,0.08l-0,0.99Zm-7.58,-0.3c-0.557,-0.023 -1.095,0.209 -1.46,0.63c-0.385,0.495 -0.577,1.114 -0.54,1.74c-0.035,0.607 0.158,1.207 0.54,1.68c0.369,0.415 0.905,0.643 1.46,0.62c0.543,0.032 1.072,-0.19 1.43,-0.6c0.363,-0.497 0.541,-1.106 0.5,-1.72c0.04,-0.617 -0.137,-1.229 -0.5,-1.73c-0.353,-0.419 -0.883,-0.649 -1.43,-0.62Zm12.44,1.77c0.02,-0.463 -0.121,-0.919 -0.4,-1.29c-0.277,-0.313 -0.683,-0.483 -1.1,-0.46c-0.435,-0.005 -0.853,0.173 -1.15,0.49c-0.329,0.348 -0.536,0.794 -0.59,1.27l3.24,-0.01Zm-35.32,-8.94c-0.377,0.006 -0.74,-0.146 -1,-0.42c-0.267,-0.264 -0.415,-0.625 -0.41,-1c-0.003,-0.375 0.145,-0.735 0.41,-1c0.257,-0.278 0.621,-0.435 1,-0.43c0.378,-0.001 0.74,0.155 1,0.43c0.27,0.263 0.421,0.624 0.42,1c0.004,0.377 -0.149,0.739 -0.42,1c-0.262,0.27 -0.623,0.422 -1,0.42Zm34.29,-0.25l-9.69,-0l-0,-18.23l9.24,-0l-0,1.93l-7.06,-0l-0,6.06l6.58,-0l-0,1.92l-6.58,-0l-0,6.32l7.52,-0l-0.01,2Zm14.31,-16.3l-5.3,-0l-0,16.3l-2.13,-0l-0,-16.3l-5.24,-0l-0,-1.93l12.67,-0l-0,1.93Zm-28.73,16.3l-2.62,-0l-9.37,-14.54c-0.233,-0.358 -0.428,-0.74 -0.58,-1.14l-0.08,-0c0.089,0.83 0.122,1.665 0.1,2.5l-0,13.18l-2.13,-0l-0,-18.23l2.77,-0l9.12,14.28c0.38,0.593 0.627,1 0.74,1.22l0.05,-0c-0.106,-0.889 -0.149,-1.785 -0.13,-2.68l-0,-12.82l2.13,-0l-0,18.23Z" style="fill:#fff;"/></svg>