<?xml version="1.0" encoding="UTF-8" standalone="no"?><!DOCTYPE svg PUBLIC "-//W3C//DTD SVG 1.1//EN" "http://www.w3.org/Graphics/SVG/1.1/DTD/svg11.dtd"><svg width="100%" height="100%" viewBox="0 0 612 280" version="1.1" xmlns="http://www.w3.org/2000/svg" xmlns:xlink="http://www.w3.org/1999/xlink" xml:space="preserve" xmlns:serif="http://www.serif.com/" style="fill-rule:evenodd;clip-rule:evenodd;stroke-linejoin:round;stroke-miterlimit:2;"><path d="M254.648,34.434l-0,-10.393l15.164,-0l-0,-11.373l-26.537,-0l-0,32.145l26.537,-0l-0,-10.379l-15.164,0Zm42.442,-10.393l10.602,-0l0,-11.373l-26.54,-0l0,11.373c3.551,3.551 5.403,5.25 10.538,10.385c-3.002,0 -10.538,0.011 -10.538,0.011l0,10.376l26.54,-0l0,-10.379l-10.602,-10.393Zm37.616,-0l10.601,-0l-0,-11.373l-26.541,-0l0,11.373c3.551,3.551 5.404,5.25 10.539,10.385c-3.001,0 -10.539,0.011 -10.539,0.011l0,10.376l26.541,-0l0,-10.379l-10.601,-10.393Z" style="fill:#fff;fill-rule:nonzero;"/><path d="M364.139,234.713l-69.849,18.808l-69.85,-18.808l-16.119,-174.623l171.939,0l-16.121,174.623Zm-16.365,-139.117l-108.042,-0l2.606,21.087l54.804,0l-2.915,1.214l-49.993,20.821l1.658,20.614l48.335,0.155l0,-0.001l25.906,0.083l-1.659,27.485l-24.247,6.826l0,-0.021l-0.198,0.055l-23.419,-5.913l-1.421,-17.06l-21.799,0l0,0.001l-0.076,-0l2.843,32.935l44.07,13.031l0,-0.024l0.08,0.024l43.834,-12.795l5.687,-65.395l-49.723,0l0.122,-0.052l51.416,-21.983l0.001,0l2.132,-21.087l-0,-0l-0,-0.001l-0.002,0.001Z" style="fill:#fff;fill-rule:nonzero;"/><clipPath id="_clip1"><rect x="16" y="12" width="172.582" height="243.622"/></clipPath><g clip-path="url(#_clip1)"><path d="M32.057,12.011l10.98,0l-0,10.848l10.043,-0l0,-10.848l10.98,0l-0,32.85l-10.98,-0l0,-11l-10.043,-0l-0,11l-10.979,-0l-0.001,-32.85Zm46.442,10.894l-9.665,0l-0,-10.894l30.316,0l0,10.894l-9.67,0l0,21.956l-10.981,-0l0,-21.956Zm25.462,-10.894l11.449,0l7.043,11.543l7.036,-11.543l11.453,0l-0,32.85l-10.936,-0l-0,-16.283l-7.554,11.68l-0.189,0l-7.559,-11.68l-0,16.283l-10.743,-0l-0,-32.85Zm42.444,0l10.983,0l-0,21.992l15.441,-0l0,10.858l-26.424,-0l0,-32.85Z" style="fill:#fff;fill-rule:nonzero;"/><path d="M31.706,236.045l-15.706,-176.161l172.582,-0l-15.723,176.133l-70.674,19.594l-70.479,-19.566Zm22.236,-74.816l74.88,-0l-2.509,28.021l-24.097,6.503l0,0.002l-0.02,0.006l-24.062,-6.498l-1.538,-17.231l-21.688,0l3.027,33.924l44.257,12.286l0.099,-0.028l0,-0.004l44.218,-12.254l0.324,-3.651l5.078,-56.879l0.527,-5.802l-78.736,-0l-1.975,-22.124l82.677,-0l0.433,-4.857l0.984,-10.953l0.517,-5.796l-108.224,-0l0.518,5.796l5.31,59.539Z" style="fill:#fff;fill-rule:nonzero;"/></g><path d="M410,60l176.622,-0l0,176.622l-176.622,0l-0,-176.622Zm96.017,81.176l-16.52,-0c-0,14.271 -0.067,28.441 -0.067,42.711c-0,9.083 0.47,17.411 -1.008,19.963c-2.417,5.02 -8.68,4.399 -11.534,3.425c-2.904,-1.428 -4.382,-3.459 -6.094,-6.33c-0.47,-0.822 -0.823,-1.46 -0.941,-1.511c-4.482,2.737 -8.948,5.49 -13.431,8.227c2.233,4.583 5.524,8.562 9.738,11.148c6.296,3.777 14.758,4.936 23.606,2.904c5.758,-1.679 10.728,-5.154 13.33,-10.442c3.761,-6.934 2.955,-15.329 2.921,-24.613c0.084,-15.144 0,-30.288 0,-45.482Zm66.15,53.322c-1.293,-8.059 -6.548,-14.825 -22.112,-21.137c-5.406,-2.485 -11.433,-4.265 -13.229,-8.361c-0.638,-2.384 -0.722,-3.728 -0.319,-5.171c1.158,-4.685 6.749,-6.145 11.181,-4.802c2.854,0.957 5.557,3.156 7.186,6.665c7.622,-4.936 7.605,-4.902 12.928,-8.294c-1.948,-3.022 -2.989,-4.415 -4.265,-5.708c-4.583,-5.121 -10.829,-7.757 -20.818,-7.555c-1.73,0.218 -3.476,0.453 -5.205,0.672c-4.986,1.259 -9.738,3.878 -12.525,7.387c-8.361,9.486 -5.977,26.09 4.197,32.923c10.024,7.522 24.748,9.234 26.628,16.269c1.83,8.613 -6.329,11.4 -14.439,10.409c-5.977,-1.242 -9.301,-4.281 -12.894,-9.805c-6.614,3.828 -6.614,3.828 -13.414,7.74c1.612,3.526 3.307,5.121 6.01,8.177c12.794,12.978 44.811,12.34 50.553,-7.304c0.235,-0.671 1.779,-5.171 0.537,-12.105Z" style="fill:#fff;fill-rule:nonzero;"/></svg>