<?xml version="1.0" encoding="UTF-8" standalone="no"?><!DOCTYPE svg PUBLIC "-//W3C//DTD SVG 1.1//EN" "http://www.w3.org/Graphics/SVG/1.1/DTD/svg11.dtd"><svg width="100%" height="100%" viewBox="0 0 1444 2600" version="1.1" xmlns="http://www.w3.org/2000/svg" xmlns:xlink="http://www.w3.org/1999/xlink" xml:space="preserve" xmlns:serif="http://www.serif.com/" style="fill-rule:evenodd;clip-rule:evenodd;stroke-linejoin:round;stroke-miterlimit:2;"><path d="M1337.38,2021.35l-9.413,0l-0,-5.268l25.352,0l-0,5.268l-9.358,0l-0,26.286l-6.581,0l0,-26.286Zm50.566,1.373l-0.148,-0l-9.335,24.922l-4.27,0l-9.27,-24.922l-0.111,-0l0,24.922l-6.206,0l-0,-31.554l9.131,0l8.596,22.344l8.568,-22.344l9.099,0l-0,31.554l-6.058,0l0.004,-24.922Z" style="fill:#fff;fill-rule:nonzero;"/><path d="M494.354,1376.12c-0,-0 -65.521,38.102 46.628,50.995c135.866,15.5 205.305,13.277 355.03,-15.06c-0,-0 39.364,24.682 94.338,46.06c-335.643,143.851 -759.626,-8.332 -495.996,-81.995m-41.014,-187.716c0,-0 -73.487,54.397 38.745,66.005c145.135,14.973 259.752,16.198 458.083,-21.992c0,-0 27.437,27.81 70.572,43.019c-405.817,118.665 -857.819,9.358 -567.4,-87.032" style="fill:#fff;fill-rule:nonzero;"/><path d="M799.099,869.977c82.702,95.216 -21.725,180.904 -21.725,180.904c0,0 209.986,-108.406 113.55,-244.156c-90.074,-126.599 -159.148,-189.495 214.792,-406.367c0.004,-0.004 -586.962,146.592 -306.617,469.619" style="fill:#fff;fill-rule:nonzero;"/><path d="M1243.01,1514.97c-0,-0 48.486,39.955 -53.399,70.858c-193.738,58.69 -806.357,76.412 -976.54,2.343c-61.176,-26.619 53.547,-63.552 89.635,-71.302c37.635,-8.161 59.143,-6.641 59.143,-6.641c-68.035,-47.927 -439.747,94.103 -188.812,134.784c684.337,110.98 1247.49,-49.974 1069.97,-130.042m-717.152,-521.058c-0,0 -311.617,74.014 -110.352,100.892c84.981,11.377 254.387,8.803 412.181,-4.418c128.961,-10.879 258.458,-34.004 258.458,-34.004c0,0 -45.473,19.474 -78.372,41.934c-316.441,83.229 -927.748,44.507 -751.761,-40.621c148.833,-71.944 269.846,-63.783 269.846,-63.783m559.003,312.463c321.677,-167.156 172.951,-327.796 69.134,-306.15c-25.445,5.296 -36.79,9.885 -36.79,9.885c-0,-0 9.45,-14.798 27.483,-21.203c205.374,-72.203 363.319,212.953 -66.297,325.897c-0,-0 4.986,-4.446 6.47,-8.429" style="fill:#fff;fill-rule:nonzero;"/><path d="M890.924,50.163c-0,0 178.15,178.206 -168.968,452.247c-278.353,219.82 -63.473,345.158 -0.115,488.367c-162.475,-146.601 -281.713,-275.645 -201.719,-395.752c117.408,-176.306 442.681,-261.786 370.802,-544.862" style="fill:#fff;fill-rule:nonzero;"/><path d="M557.471,1759.33c308.77,19.765 782.922,-10.967 794.147,-157.063c0,-0 -21.581,55.381 -255.182,99.371c-263.537,49.591 -588.583,43.805 -781.369,12.02c0.009,-0.01 39.47,32.658 242.404,45.672" style="fill:#fff;fill-rule:nonzero;"/><path d="M506.868,2317.59c-29.128,25.265 -59.891,39.447 -87.499,39.447c-39.406,0 -60.696,-23.628 -60.696,-61.527c0,-40.995 22.815,-70.969 114.326,-70.969l33.865,-0l0.004,93.049m80.373,90.684l0,-280.706c0,-71.713 -40.898,-119.025 -139.507,-119.025c-57.567,-0 -107.994,14.215 -148.98,32.344l11.83,49.688c32.271,-11.844 74.042,-22.871 115.042,-22.871c56.805,0 81.242,22.871 81.242,70.156l0,35.482l-28.351,-0c-138.015,-0 -200.272,53.574 -200.272,133.984c-0,69.403 41.027,108.85 118.276,108.85c49.656,-0 86.723,-20.505 121.374,-50.506l6.289,42.613l63.057,-0.009Zm268.233,-0l-100.24,-0l-120.643,-392.624l87.545,0l74.856,241.226l16.641,72.549c37.871,-104.893 64.661,-211.312 78.058,-313.775l85.156,0c-22.82,129.285 -63.875,271.195 -121.373,392.624m384.554,-90.684c-29.183,25.265 -59.998,39.447 -87.61,39.447c-39.336,0 -60.682,-23.628 -60.682,-61.527c0,-40.995 22.862,-70.969 114.368,-70.969l33.924,-0l0,93.049m80.364,90.684l0,-280.706c0,-71.713 -40.995,-119.025 -139.497,-119.025c-57.605,-0 -108.05,14.215 -149.018,32.344l11.817,49.688c32.279,-11.844 74.13,-22.871 115.097,-22.871c56.763,0 81.237,22.871 81.237,70.156l0,35.482l-28.402,-0c-138.051,-0 -200.286,53.574 -200.286,133.984c0,69.403 40.995,108.85 118.231,108.85c49.688,-0 86.741,-20.505 121.447,-50.506l6.312,42.613l63.062,-0.009Zm-1130.28,66.671c-22.912,33.453 -59.919,59.919 -100.434,74.892l-39.683,-46.698c30.838,-15.823 57.285,-41.379 69.573,-65.178c10.629,-21.17 15.029,-48.454 15.029,-113.702l-0,-448.241l85.392,0l-0,442.099c-0.005,87.227 -6.979,122.464 -29.877,156.828" style="fill:#fff;fill-rule:nonzero;"/></svg>