<?xml version="1.0" encoding="UTF-8" standalone="no"?><!DOCTYPE svg PUBLIC "-//W3C//DTD SVG 1.1//EN" "http://www.w3.org/Graphics/SVG/1.1/DTD/svg11.dtd"><svg width="100%" height="100%" viewBox="0 0 2500 1300" version="1.1" xmlns="http://www.w3.org/2000/svg" xmlns:xlink="http://www.w3.org/1999/xlink" xml:space="preserve" xmlns:serif="http://www.serif.com/" style="fill-rule:evenodd;clip-rule:evenodd;stroke-linejoin:round;stroke-miterlimit:2;"><path d="M110.295,1112.92l75.225,0l-0,-298.006l117.48,259.823c13.307,31.232 32.411,42.814 69.44,42.814c37.041,-0 54.979,-11.582 68.869,-42.814l116.897,-259.823l-0,298.006l75.808,0l-0,-298.006c-0,-28.922 -11.582,-42.839 -35.887,-50.361c-57.288,-17.354 -95.484,-2.309 -112.837,36.458l-115.146,256.944l-111.112,-256.944c-16.783,-38.754 -55.562,-53.799 -113.42,-36.458c-23.722,7.522 -35.304,21.426 -35.304,50.361l-0,298.006l-0.013,0Zm586.207,-242.456l75.809,-0l-0,163.769c-0.571,9.247 2.892,30.09 43.98,30.647c21.413,0.584 163.186,0 164.34,0l-0,-195.584l75.808,0l0,267.93c0,65.964 -81.593,80.425 -119.789,81.009l-238.423,-0l0,-50.336l238.994,0c48.611,-5.214 42.826,-29.506 42.826,-37.612l0,-19.688l-160.293,-0c-74.654,-0.584 -122.681,-33.566 -123.252,-71.178c0,-3.463 1.725,-167.816 0,-168.957Zm1626.07,-189.813c-46.277,-1.154 -82.177,3.476 -112.267,16.212c-8.663,3.489 -22.567,3.489 -23.708,14.475c4.63,4.604 5.188,12.139 9.247,18.52c6.939,11.582 19.105,27.185 30.09,35.291c12.166,9.274 24.318,18.521 37.029,26.627c22.567,13.878 48.027,21.984 70.01,35.874c12.737,8.107 25.46,18.521 38.196,27.211c6.356,4.63 10.415,12.166 18.521,15.045l0,-1.751c-4.046,-5.188 -5.214,-12.71 -9.247,-18.521c-5.798,-5.771 -11.582,-10.998 -17.38,-16.77c-16.77,-22.567 -37.612,-42.255 -60.192,-58.441c-18.521,-12.737 -59.026,-30.09 -66.548,-51.503l-1.142,-1.168c12.711,-1.167 27.769,-5.797 39.921,-9.273c19.688,-5.188 37.613,-4.047 57.858,-9.248c9.274,-2.321 18.521,-5.213 27.795,-8.106l-0,-5.201c-10.415,-10.414 -17.938,-24.305 -28.923,-34.136c-29.506,-25.46 -61.931,-50.349 -95.496,-71.178c-17.938,-11.569 -41.089,-19.104 -60.167,-28.923c-6.965,-3.475 -18.521,-5.213 -22.567,-10.998c-10.441,-12.723 -16.213,-29.506 -23.735,-44.564c-16.77,-31.828 -32.982,-67.119 -47.444,-100.684c-10.414,-22.568 -16.795,-45.135 -29.506,-65.965c-59.609,-98.375 -124.432,-157.984 -223.962,-216.426c-21.4,-12.153 -46.859,-17.367 -74.07,-23.722c-14.461,-0.583 -28.923,-1.738 -43.397,-2.321c-9.273,-4.047 -18.521,-15.045 -26.627,-20.259c-32.982,-20.83 -118.051,-65.964 -142.369,-6.368c-15.628,37.612 23.151,74.641 36.458,93.745c9.857,13.307 22.568,28.352 29.532,43.397c4.034,9.831 5.188,20.259 9.248,30.674c9.247,25.459 17.937,53.811 30.09,77.546c6.355,12.152 13.294,24.889 21.4,35.887c4.63,6.368 12.736,9.261 14.461,19.675c-8.106,11.582 -8.664,28.936 -13.294,43.41c-20.842,65.394 -12.736,146.403 16.77,194.43c9.273,14.461 31.257,46.289 60.776,34.136c26.044,-10.415 20.246,-43.397 27.768,-72.332c1.751,-6.939 0.584,-11.569 4.047,-16.199l0,1.154c8.106,16.199 16.212,31.828 23.735,48.027c17.937,28.352 49.194,57.871 75.237,77.546c13.878,10.415 24.876,28.365 42.23,34.72l-0,-1.751l-1.141,0c-3.476,-5.188 -8.69,-7.509 -13.32,-11.569c-10.415,-10.414 -21.984,-23.151 -30.09,-34.72c-24.293,-32.398 -45.693,-68.286 -64.797,-105.314c-9.274,-17.937 -17.38,-37.613 -24.876,-55.55c-3.502,-6.952 -3.502,-17.366 -9.274,-20.829c-8.689,12.723 -21.4,23.734 -27.794,39.35c-10.998,24.876 -12.14,55.55 -16.186,87.377c-2.335,0.584 -1.167,0 -2.335,1.155c-18.495,-4.618 -24.876,-23.722 -31.814,-39.921c-17.354,-41.088 -20.259,-107.053 -5.214,-154.509c4.046,-12.153 21.426,-50.349 14.487,-61.918c-3.502,-10.998 -15.045,-17.353 -21.426,-26.043c-7.523,-10.998 -15.603,-24.876 -20.817,-37.029c-13.877,-32.411 -20.816,-68.286 -35.874,-100.697c-6.965,-15.045 -19.104,-30.673 -28.948,-44.551c-10.999,-15.629 -23.126,-26.627 -31.815,-45.135c-2.893,-6.368 -6.939,-16.783 -2.309,-23.722c1.141,-4.63 3.476,-6.368 8.08,-7.522c7.523,-6.368 28.949,1.738 36.471,5.201c21.4,8.677 39.337,16.783 57.275,28.922c8.106,5.785 16.796,16.783 27.21,19.689l12.166,-0c18.521,4.046 39.337,1.154 56.691,6.355c30.673,9.844 58.441,24.305 83.343,39.934c75.796,48.027 138.31,116.312 180.54,197.905c6.938,13.307 9.831,25.46 16.212,39.351c12.165,28.364 27.21,57.287 39.337,85.068c12.166,27.198 23.735,54.979 41.088,77.546c8.69,12.153 43.397,18.508 59.026,24.876c11.582,5.201 29.506,9.844 39.947,16.2c19.662,12.152 39.337,26.043 57.858,39.35c9.247,6.926 38.196,21.387 39.921,32.956Z" style="fill:#fff;"/><path d="M1732.32,177.785c-9.831,0 -16.77,1.155 -23.709,2.893l-0,1.154l1.141,-0c4.63,9.26 12.737,15.629 18.521,23.722c4.63,9.26 8.69,18.52 13.32,27.781l1.141,-1.154c8.106,-5.785 12.166,-15.045 12.166,-28.936c-3.476,-4.047 -4.047,-8.106 -6.939,-12.153c-3.476,-5.784 -10.998,-8.676 -15.641,-13.307Z" style="fill:#fff;"/><path d="M1114.31,1112.92l217.581,0c25.46,0 49.778,-5.188 69.44,-14.461c32.982,-15.045 48.611,-35.291 48.611,-61.905l-0,-55.549c-0,-21.4 -17.937,-41.672 -53.799,-55.55c-18.521,-6.938 -41.672,-10.998 -64.239,-10.998l-91.424,0c-30.673,0 -45.135,-9.273 -49.194,-29.506c-0.571,-2.309 -0.571,-4.63 -0.571,-6.939l0,-34.149c0,-1.751 0,-4.047 0.571,-6.356c4.046,-15.628 12.153,-19.688 38.779,-22.567l222.782,0l0,-50.362l-211.809,0c-30.674,0 -46.873,1.751 -61.334,6.382c-44.564,13.877 -64.239,35.874 -64.239,74.628l-0,44.006c-0,34.123 38.196,63.072 103.006,70.011c6.938,0.583 14.461,0.583 21.983,0.583l78.13,0c2.892,0 5.772,0 8.08,0.584c23.735,2.309 34.15,6.355 41.088,15.019c4.631,4.63 5.798,8.69 5.798,13.904l-0,43.98c-0,5.188 -3.476,12.166 -10.415,17.937c-6.965,5.772 -17.963,9.831 -32.424,10.415c-2.892,0 -4.604,0.584 -7.523,0.584l-208.878,-0l0,50.309Zm806.655,-87.364c-0,51.503 38.779,80.426 116.326,86.223c7.522,0.584 14.461,1.141 21.983,1.141l196.752,0l-0,-50.335l-198.477,-0c-44.006,-0 -60.776,-10.999 -60.776,-37.613l0,-260.407l-75.821,0l-0,260.991l0.013,0Zm-423.009,2.296l-0,-179.372c-0,-45.719 32.398,-73.513 95.496,-82.177c6.939,-0.583 13.878,-1.167 20.246,-1.167l143.498,0c7.522,0 13.903,0.584 21.426,1.167c63.072,8.664 94.886,36.458 94.886,82.177l0,179.372c0,37.028 -13.294,56.716 -44.564,70.036l74.071,67.106l-87.365,0l-60.192,-54.382l-60.777,3.476l-81.009,-0c-13.294,-0 -28.352,-1.725 -43.98,-5.772c-48.001,-13.333 -71.736,-38.792 -71.736,-80.464Zm81.593,-4.021c-0,2.309 1.167,4.604 1.751,7.523c4.046,20.816 23.708,32.398 53.798,32.398l68.299,0l-62.488,-56.717l87.364,0l54.966,49.778c10.441,-5.797 16.796,-13.903 19.104,-24.318c0.584,-2.309 0.584,-5.188 0.584,-7.523l0,-171.875c0,-2.309 0,-4.604 -0.584,-6.939c-4.046,-19.662 -23.708,-30.647 -53.228,-30.647l-114.017,-0c-33.565,-0 -55.549,14.461 -55.549,37.586l-0,170.734Zm711.21,89.673l10.998,0l0,-42.23l14.461,0l0,-8.689l-40.504,-0l-0,8.689l15.045,0l-0,42.23Zm83.901,0l10.415,0l-0,-50.919l-15.603,-0l-12.736,34.733l-13.878,-34.733l-15.045,-0l0,50.919l9.831,0l0,-38.754l0.584,0l14.461,38.754l7.523,0l14.461,-38.754l0,38.754l-0.013,0Z" style="fill:#fff;"/></svg>