<?xml version="1.0" encoding="UTF-8" standalone="no"?><!DOCTYPE svg PUBLIC "-//W3C//DTD SVG 1.1//EN" "http://www.w3.org/Graphics/SVG/1.1/DTD/svg11.dtd"><svg width="100%" height="100%" viewBox="0 0 512 340" version="1.1" xmlns="http://www.w3.org/2000/svg" xmlns:xlink="http://www.w3.org/1999/xlink" xml:space="preserve" xmlns:serif="http://www.serif.com/" style="fill-rule:evenodd;clip-rule:evenodd;stroke-linejoin:round;stroke-miterlimit:2;"><path d="M422.538,84.43c-0,-5.519 -4.481,-10 -10,-10l-402.538,0c-5.519,0 -10,4.481 -10,10l0,244.086c0,5.519 4.481,10 10,10l402.538,0c5.519,0 10,-4.481 10,-10l-0,-244.086Zm-408.538,0c2.208,0 4,1.792 4,4c-0,2.208 -1.792,4 -4,4c-2.208,0 -4,-1.792 -4,-4c0,-2.208 1.792,-4 4,-4Zm15,0c2.208,0 4,1.792 4,4c-0,2.208 -1.792,4 -4,4c-2.208,0 -4,-1.792 -4,-4c0,-2.208 1.792,-4 4,-4Zm15,0c2.208,0 4,1.792 4,4c-0,2.208 -1.792,4 -4,4c-2.208,0 -4,-1.792 -4,-4c0,-2.208 1.792,-4 4,-4Z" style="fill:#fff;"/><path d="M89.462,54.43l343.076,0c5.519,0 10,4.481 10,10l-0,201.14l59.462,-0c5.519,-0 10,-4.481 10,-10l-0,-244.086c-0,-5.519 -4.481,-10 -10,-10l-402.538,-0c-5.519,-0 -10,4.481 -10,10l0,42.946Zm408.625,-40.671l-3.275,-3.275l-1.637,1.637l3.275,3.275l-3.275,3.275l1.637,1.638l3.275,-3.275l3.275,3.275l1.638,-1.638l-3.275,-3.275l3.275,-3.275l-1.638,-1.637l-3.275,3.275Zm-12.455,-1.836l-9.264,-0l0,6.947l9.264,0l-0,-6.947Zm-17.369,2.316l-9.263,-0l-0,2.315l9.263,0l0,-2.315Z" style="fill:#fff;"/></svg>