<?xml version="1.0" encoding="UTF-8" standalone="no"?><!DOCTYPE svg PUBLIC "-//W3C//DTD SVG 1.1//EN" "http://www.w3.org/Graphics/SVG/1.1/DTD/svg11.dtd"><svg width="100%" height="100%" viewBox="0 0 2500 1309" version="1.1" xmlns="http://www.w3.org/2000/svg" xmlns:xlink="http://www.w3.org/1999/xlink" xml:space="preserve" xmlns:serif="http://www.serif.com/" style="fill-rule:evenodd;clip-rule:evenodd;stroke-linejoin:round;stroke-miterlimit:2;"><path d="M1250,0.203c689.894,0 1250,291.562 1250,650.684c0,359.122 -560.106,650.683 -1250,650.683c-689.894,0 -1250,-291.561 -1250,-650.683c0,-359.122 560.106,-650.684 1250,-650.684Zm-898.975,1035.96l136.993,-693.496l316.767,0c136.983,8.565 205.479,77.051 205.479,196.924c-0,205.478 -162.666,325.342 -308.223,316.777l-154.092,0l-34.248,179.795l-162.676,0Zm1147.27,0l136.982,-693.496l316.778,0c136.992,8.565 205.488,77.051 205.488,196.924c0,205.478 -162.676,325.342 -308.223,316.777l-154.111,0l-34.248,179.795l-162.666,0Zm-519.854,-179.795l136.983,-693.486l162.676,-0l-34.248,179.785l154.101,0c136.992,8.565 188.36,77.051 171.24,162.676l-59.931,351.025l-171.231,0l59.932,-316.777c8.555,-42.813 8.555,-68.496 -51.367,-68.496l-128.428,-0l-77.051,385.273l-162.675,0Zm-396.25,-128.418l42.812,-256.855l111.299,-0c59.931,-0 102.734,25.683 102.734,77.051c-8.554,145.556 -77.051,171.24 -154.101,179.804l-102.744,0Zm1147.26,0l42.813,-256.855l111.308,-0c59.932,-0 102.735,25.683 102.735,77.051c-8.555,145.556 -77.051,171.24 -154.102,179.804l-102.754,0Z" style="fill:#fff;"/></svg>