<?xml version="1.0" encoding="UTF-8" standalone="no"?><!DOCTYPE svg PUBLIC "-//W3C//DTD SVG 1.1//EN" "http://www.w3.org/Graphics/SVG/1.1/DTD/svg11.dtd"><svg width="100%" height="100%" viewBox="0 0 2500 2490" version="1.1" xmlns="http://www.w3.org/2000/svg" xmlns:xlink="http://www.w3.org/1999/xlink" xml:space="preserve" xmlns:serif="http://www.serif.com/" style="fill-rule:evenodd;clip-rule:evenodd;stroke-linejoin:round;stroke-miterlimit:2;"><path d="M1239.41,0.703c-633.065,0 -593.538,274.535 -593.538,274.535l0.703,284.426l604.123,0l0,85.392l-844.071,0c0,0 -405.098,-45.942 -405.098,592.816c-0,638.778 353.58,616.123 353.58,616.123l211.015,0l-0,-296.417c-0,0 -11.376,-353.58 347.936,-353.58l599.182,0c-0,0 336.638,5.439 336.638,-325.35l-0,-546.941c-0,0 51.128,-331.004 -610.47,-331.004Zm-333.113,191.271c0.032,0 0.065,0 0.098,0c59.567,0 108.583,49.016 108.583,108.584c0,0.032 0,0.065 0,0.097c0,0.033 0,0.065 0,0.098c0,59.567 -49.016,108.584 -108.583,108.584c-0.033,-0 -0.066,-0.001 -0.098,-0.001c-0.033,0 -0.065,0.001 -0.098,0.001c-59.567,-0 -108.583,-49.017 -108.583,-108.584c-0,-0.033 -0,-0.065 -0,-0.098c-0,-0.032 -0,-0.065 -0,-0.097c-0,-59.568 49.016,-108.584 108.583,-108.584c0.033,0 0.065,0 0.098,0Z" style="fill:#fff;fill-rule:nonzero;"/><path d="M1257.39,2481.47c633.065,-0 593.538,-274.535 593.538,-274.535l-0.703,-284.417l-604.133,0l0,-85.392l844.071,0c0,0 405.099,45.943 405.099,-592.835c-0,-638.768 -353.58,-616.114 -353.58,-616.114l-211.016,0l0,296.408c0,-0 11.376,353.58 -347.936,353.58l-599.182,-0c0,-0 -336.638,-5.439 -336.638,325.36l0,546.95c0,0 -51.118,330.995 610.47,330.995l0.01,-0Zm333.113,-191.252c-0.033,0 -0.065,0 -0.098,0c-59.567,0 -108.583,-49.016 -108.583,-108.583c-0,-0.033 -0,-0.065 -0,-0.098c-0,-0.036 -0,-0.072 -0,-0.108c-0,-59.567 49.016,-108.583 108.583,-108.583c0.033,-0 0.065,-0 0.098,0c0.033,-0 0.065,-0 0.098,-0c59.567,-0 108.583,49.016 108.583,108.583c0,0.033 0,0.066 0,0.098c0,0.033 0,0.065 0,0.098c0,59.567 -49.016,108.583 -108.583,108.583c-0.033,0 -0.065,0 -0.098,0l0,0.01Z" style="fill:#fff;fill-rule:nonzero;"/></svg>