<?xml version="1.0" encoding="UTF-8" standalone="no"?><!DOCTYPE svg PUBLIC "-//W3C//DTD SVG 1.1//EN" "http://www.w3.org/Graphics/SVG/1.1/DTD/svg11.dtd"><svg width="100%" height="100%" viewBox="0 0 512 340" version="1.1" xmlns="http://www.w3.org/2000/svg" xmlns:xlink="http://www.w3.org/1999/xlink" xml:space="preserve" xmlns:serif="http://www.serif.com/" style="fill-rule:evenodd;clip-rule:evenodd;stroke-linejoin:round;stroke-miterlimit:2;"><path d="M502,41c0,-11.038 -8.962,-20 -20,-20l-452,-0c-11.038,-0 -20,8.962 -20,20l-0,46c-0,11.038 8.962,20 20,20l452,0c11.038,0 20,-8.962 20,-20l0,-46Zm-20,40.5c0,-1.38 -1.12,-2.5 -2.5,-2.5l-160,0c-1.38,0 -2.5,1.12 -2.5,2.5l0,5c0,1.38 1.12,2.5 2.5,2.5l160,0c1.38,0 2.5,-1.12 2.5,-2.5l0,-5Zm-362,-27.5c5.519,0 10,4.481 10,10c-0,5.519 -4.481,10 -10,10c-5.519,-0 -10,-4.481 -10,-10c-0,-5.519 4.481,-10 10,-10Zm-80,0c5.519,0 10,4.481 10,10c-0,5.519 -4.481,10 -10,10c-5.519,-0 -10,-4.481 -10,-10c-0,-5.519 4.481,-10 10,-10Zm40,0c5.519,0 10,4.481 10,10c-0,5.519 -4.481,10 -10,10c-5.519,-0 -10,-4.481 -10,-10c-0,-5.519 4.481,-10 10,-10Zm402,7.5c0,-1.38 -1.12,-2.5 -2.5,-2.5l-160,0c-1.38,0 -2.5,1.12 -2.5,2.5l0,5c0,1.38 1.12,2.5 2.5,2.5l160,0c1.38,0 2.5,-1.12 2.5,-2.5l0,-5Zm0,-20c0,-1.38 -1.12,-2.5 -2.5,-2.5l-160,0c-1.38,0 -2.5,1.12 -2.5,2.5l0,5c0,1.38 1.12,2.5 2.5,2.5l160,0c1.38,0 2.5,-1.12 2.5,-2.5l0,-5Z" style="fill:#fff;"/><path d="M502,147c0,-11.038 -8.962,-20 -20,-20l-452,-0c-11.038,-0 -20,8.962 -20,20l-0,46c-0,11.038 8.962,20 20,20l452,0c11.038,0 20,-8.962 20,-20l0,-46Zm-20,40.5c0,-1.38 -1.12,-2.5 -2.5,-2.5l-160,0c-1.38,0 -2.5,1.12 -2.5,2.5l0,5c0,1.38 1.12,2.5 2.5,2.5l160,0c1.38,0 2.5,-1.12 2.5,-2.5l0,-5Zm-362,-27.5c5.519,0 10,4.481 10,10c-0,5.519 -4.481,10 -10,10c-5.519,-0 -10,-4.481 -10,-10c-0,-5.519 4.481,-10 10,-10Zm-80,0c5.519,0 10,4.481 10,10c-0,5.519 -4.481,10 -10,10c-5.519,-0 -10,-4.481 -10,-10c-0,-5.519 4.481,-10 10,-10Zm40,0c5.519,0 10,4.481 10,10c-0,5.519 -4.481,10 -10,10c-5.519,-0 -10,-4.481 -10,-10c-0,-5.519 4.481,-10 10,-10Zm402,7.5c0,-1.38 -1.12,-2.5 -2.5,-2.5l-160,0c-1.38,0 -2.5,1.12 -2.5,2.5l0,5c0,1.38 1.12,2.5 2.5,2.5l160,0c1.38,0 2.5,-1.12 2.5,-2.5l0,-5Zm0,-20c0,-1.38 -1.12,-2.5 -2.5,-2.5l-160,0c-1.38,0 -2.5,1.12 -2.5,2.5l0,5c0,1.38 1.12,2.5 2.5,2.5l160,0c1.38,0 2.5,-1.12 2.5,-2.5l0,-5Z" style="fill:#fff;"/><path d="M502,253c0,-11.038 -8.962,-20 -20,-20l-452,-0c-11.038,-0 -20,8.962 -20,20l-0,46c-0,11.038 8.962,20 20,20l452,0c11.038,0 20,-8.962 20,-20l0,-46Zm-20,40.5c0,-1.38 -1.12,-2.5 -2.5,-2.5l-160,0c-1.38,0 -2.5,1.12 -2.5,2.5l0,5c0,1.38 1.12,2.5 2.5,2.5l160,0c1.38,0 2.5,-1.12 2.5,-2.5l0,-5Zm-362,-27.5c5.519,0 10,4.481 10,10c-0,5.519 -4.481,10 -10,10c-5.519,-0 -10,-4.481 -10,-10c-0,-5.519 4.481,-10 10,-10Zm-80,0c5.519,0 10,4.481 10,10c-0,5.519 -4.481,10 -10,10c-5.519,-0 -10,-4.481 -10,-10c-0,-5.519 4.481,-10 10,-10Zm40,0c5.519,0 10,4.481 10,10c-0,5.519 -4.481,10 -10,10c-5.519,-0 -10,-4.481 -10,-10c-0,-5.519 4.481,-10 10,-10Zm402,7.5c0,-1.38 -1.12,-2.5 -2.5,-2.5l-160,0c-1.38,0 -2.5,1.12 -2.5,2.5l0,5c0,1.38 1.12,2.5 2.5,2.5l160,0c1.38,0 2.5,-1.12 2.5,-2.5l0,-5Zm0,-20c0,-1.38 -1.12,-2.5 -2.5,-2.5l-160,0c-1.38,0 -2.5,1.12 -2.5,2.5l0,5c0,1.38 1.12,2.5 2.5,2.5l160,0c1.38,0 2.5,-1.12 2.5,-2.5l0,-5Z" style="fill:#fff;"/></svg>